<svg xmlns="http://www.w3.org/2000/svg" xml:space="preserve" width="263.6" height="236" viewBox="0 0 69.7 62.4"><path d="M50.1 63.1 49 61.5h-.7l-.8.1-.7-.7-1.3-1.6-.7-.9-2.5 1.2-2.3 1.2h-4l-1.2-.5-2.2-1.3-2-1.3-1-.6-1.3 1.6-1.3 1.6H25.2L24 61.7 23 63.2l-1-.1H21v-.7l-.1-.6 1.3-1.5 1.4-1.6-.3-.2c-.2 0-.3-.3-.3-.6v-.5l1.2-1.4 1.2-1.6-1-.8-.9-.6-.8 1c-.5.6-1.1 1.4-1.5 1.7l-.6.7-.7-.2-.7-.1-1.4 1.6-1.3 1.6-.6.1-.6.1-.2-.3c-.2-.2-.3-.6-.3-.9v-.5l1.3-1.5 1.3-1.5-.2-.4c-.4-.6-.4-.6 1-2.4l1.4-1.6-1-.6c-.9-.7-1.4-.8-1.4-.4L15.9 51l-1.3 1.4-.7-.2-.8-.1-1.3 1.6-1.3 1.6-.8-.1-.8-.1-.1-.7v-.6l1.3-1.5 1.3-1.5-.3-.5-.2-.5.4-.7 1.3-1.8.9-1-1-.7-1-.7-1.3 1.6-1.3 1.6H7.2l-1.6 1.6-1.5 1.6H2.7l-.1-.7-.2-.7 1.4-1.6 1.4-1.7-.2-.4c-.3-.6-.4-.6 1-2.3l1.4-1.6-.4-.7-.4-.8V36l.2-.5c.5-1 1.4-1.5 5.4-3.7l4-2.2.2 4 .2 4 .4 1 1.7 2 1.2 1.2 2.1 1 2.2 1 2.6.7 2.7.7 3 .2 3 .3 3-.3 3-.2 2.6-.7 2.6-.7 1.9-.9 1.9-.9 1.3-1.2 1.4-1.2.6-1.1.6-1.1v-4.2l.3-4.2 7.4 4 5.6 3.3.3.7.3.8-.2.7-.2.7-1.9 1.1L40 55l-1.2.6h-2.4l-2.3-.1.5.3 1.3.8.9.3h3.1l13.4-7.5c7.5-4.1 13.8-7.7 14.2-8l.7-.4.1.3c.1.4-.1 2.3-.4 3l-.2.3 1.2 1.6 1.2 1.6-.1.7-.2.7 1.2 1.5c1.3 1.7 1.4 2 .9 2.6l-.4.5-.6-.1-.7-.2-1.1-1.6-1.2-1.6H66.2l-1.4-1.7-1.3-1.7-1 .5-.9.8c0 .2.5 1 1.1 1.7l1.1 1.5-.1.8-.2.8 1.2 1.6 1.2 1.5-.2.7-.1.7H64.3l-.5-.5c-.3-.3-.9-1-1.3-1.8l-.9-1.2-.6.2-.7.1-.7-.7-1.6-1.8-.8-1-1 .5-.9.8 1 1.6 1.2 1.5-.2.8-.1.7 1.2 1.6 1.2 1.6-.3.6-.3.7H57.7l-1.3-1.8-1.2-1.7-.6.2-.6.1-1-1c-.6-.5-1.3-1.4-1.6-1.8l-.5-.7-1 .5-1 .8 1 1.3c1 1.3 1.3 2.2 1 2.9l-.1.4 1 1.4a37 37 0 0 1 1.2 1.7l.2.3-.2.5-.1.6h-1.6Zm-19-19.7c-4.2-.6-7.3-1.6-9.8-3l-1.2-.9-.8-1-.8-1V24.5l7.8 3.8 7.8 4h3l7.7-4 7.6-3.9V37l-.4.7c-.2.4-.9 1.2-1.5 1.8l-1.1 1-2 .9c-1 .5-2.8 1.1-4 1.4l-2.3.6h-10zm-6.6-17.6-13.1-6.6L8 17.5 8 17v-1l.2-.7 1.7-.9 12.7-6.5 11.1-5.6h2.8l12 6c6.7 3.3 12.5 6.4 13 6.7l.8.7-.1 3.4v3.3l.5.3.5.3v.7c0 .4-.1.9-.3 1l-.3.4.6 1.1 1.3 2 .6.8-.6.3-.5.3-.4-.5-.6-.6h-.3l.3.7.2.6-.4.1c-.7.3-.9.2-1.2-.5l-.3-.8-.1.8-.1.7-.6-.2-.7-.2.4-2.2.6-2.1-.4-.5c-.4-.6-.4-1.5 0-2l.4-.6v-3.8h-.2l-12 6-11.7 6h-1.3l-1.3.2z" style="fill:#000" transform="translate(-2.4 -2.3)"/></svg>